<svg width="151" height="19" viewBox="0 0 151 19" fill="none" xmlns="http://www.w3.org/2000/svg">
<path d="M20.8253 0H4.57318C3.78147 0 3.0269 0.630041 2.88644 1.40705L0.0225859 17.3575C-0.117879 18.1345 0.411474 18.7645 1.20318 18.7645H17.4553C18.247 18.7645 19.0027 18.1345 19.142 17.3575L22.007 1.40705C22.1452 0.630041 21.617 0 20.8253 0Z" fill="#4CCEAC"/>
<path d="M10.8779 3.40674L8.38668 17.2779H4.85997L6.19613 9.84159C6.38883 8.7676 6.47861 8.12198 6.46545 7.90475C6.45972 7.79906 6.4241 7.69703 6.36259 7.61009C6.30107 7.52316 6.2161 7.45476 6.11719 7.41257C5.90127 7.30092 5.38584 7.24509 4.57092 7.24509H4.22266L4.51403 5.6284C6.2832 5.26838 7.71106 4.52782 8.79764 3.40674H10.8779Z" fill="white"/>
<path d="M15.7152 1.53125C16.3978 2.65158 17.5586 3.39175 19.1978 3.75178L18.9076 5.36961H18.5593C17.7444 5.36961 17.2092 5.42505 16.9538 5.53594C16.8383 5.58047 16.7328 5.64697 16.6436 5.73164C16.5543 5.8163 16.483 5.91745 16.4337 6.02927C16.3416 6.24574 16.1993 6.89135 16.0065 7.96611L14.6704 15.4024H11.146L13.6407 1.53125H15.7152Z" fill="white"/>
<path d="M37.5091 12.0564H33.3514L32.5576 13.94H30.4331L34.425 5.15039H36.4728L40.4771 13.94H38.3092L37.5091 12.0564ZM36.8583 10.5125L35.4385 7.14591L34.0188 10.5125H36.8583Z" fill="#343A40"/>
<path d="M42.4233 10.0731V5.15039H44.496V9.99782C44.496 11.6679 45.238 12.3575 46.4919 12.3575C47.7459 12.3575 48.4879 11.6679 48.4879 9.99782V5.15039H50.5377V10.0731C50.5377 12.6606 49.0268 14.0926 46.4816 14.0926C43.9364 14.0926 42.4233 12.6606 42.4233 10.0731Z" fill="#343A40"/>
<path d="M55.5637 6.80824H52.6973V5.15039H60.5028V6.80824H57.6364V13.94H55.5637V6.80824Z" fill="#343A40"/>
<path d="M62.2048 9.54637C62.2048 6.93246 64.2775 5 67.1046 5C69.9317 5 72.0064 6.92026 72.0064 9.54637C72.0064 12.1725 69.9192 14.0927 67.1046 14.0927C64.2899 14.0927 62.2048 12.1582 62.2048 9.54637ZM69.9068 9.54637C69.9068 7.87428 68.7047 6.73311 67.1046 6.73311C65.5045 6.73311 64.3024 7.87428 64.3024 9.54637C64.3024 11.2185 65.5066 12.3576 67.1046 12.3576C68.7026 12.3576 69.9068 11.2164 69.9068 9.54637Z" fill="#343A40"/>
<path d="M80.5538 13.94L78.8252 11.499H76.9183V13.94H74.8457V5.15039H78.7257C81.1175 5.15039 82.6161 6.37089 82.6161 8.33997C82.6405 8.93297 82.4762 9.51872 82.146 10.0159C81.8158 10.5131 81.3361 10.8971 80.7735 11.1146L82.7819 13.94H80.5538ZM78.6076 6.80824H76.9183V9.8717H78.6076C79.8739 9.8717 80.5144 9.294 80.5144 8.33997C80.5144 7.38594 79.8739 6.80824 78.6076 6.80824Z" fill="#343A40"/>
<path d="M92.4656 12.3086V13.936H85.5305V5.15039H92.2998V6.77773H87.5907V8.68781H91.7485V10.2704H87.5907V12.3046L92.4656 12.3086Z" fill="#343A40"/>
<path d="M103.162 8.33997C103.162 10.2989 101.666 11.5174 99.2718 11.5174H97.4686V13.94H95.396V5.15039H99.2718C101.666 5.15039 103.162 6.36886 103.162 8.33997ZM101.063 8.33997C101.063 7.37374 100.424 6.80824 99.1578 6.80824H97.4686V9.8595H99.1578C100.424 9.8595 101.063 9.294 101.063 8.33997Z" fill="#343A40"/>
<path d="M111.621 13.94L109.892 11.499H107.985V13.94H105.913V5.15039H109.791C112.182 5.15039 113.681 6.37089 113.681 8.33997C113.705 8.93297 113.541 9.51872 113.211 10.0159C112.881 10.5131 112.401 10.8971 111.838 11.1146L113.847 13.94H111.621ZM109.674 6.80824H107.985V9.8717H109.674C110.941 9.8717 111.581 9.294 111.581 8.33997C111.581 7.38594 110.941 6.80824 109.674 6.80824Z" fill="#343A40"/>
<path d="M116.597 5.15039H118.67V13.94H116.597V5.15039Z" fill="#343A40"/>
<path d="M121.509 9.54637C121.509 6.90195 123.582 5 126.372 5C127.92 5 129.213 5.55126 130.057 6.55614L128.726 7.7624C128.453 7.43696 128.109 7.17563 127.72 6.99753C127.33 6.81943 126.905 6.72909 126.475 6.73311C124.799 6.73311 123.609 7.88852 123.609 9.54637C123.609 11.2042 124.799 12.3576 126.475 12.3576C126.906 12.3625 127.333 12.2713 127.723 12.0909C128.113 11.9105 128.456 11.6456 128.726 11.3161L130.057 12.5224C129.213 13.5395 127.92 14.0927 126.359 14.0927C123.584 14.0927 121.509 12.1949 121.509 9.54637Z" fill="#343A40"/>
<path d="M139.661 12.3086V13.936H132.73V5.15039H139.5V6.77773H134.791V8.68781H138.95V10.2704H134.791V12.3046L139.661 12.3086Z" fill="#343A40"/>
<path d="M148.304 13.94L146.576 11.499H144.669V13.94H142.596V5.15039H146.474C148.866 5.15039 150.364 6.37089 150.364 8.33997C150.389 8.93297 150.225 9.51872 149.894 10.0159C149.564 10.5131 149.085 10.8971 148.522 11.1146L150.53 13.94H148.304ZM146.358 6.80824H144.669V9.8717H146.358C147.624 9.8717 148.265 9.294 148.265 8.33997C148.265 7.38594 147.624 6.80824 146.358 6.80824Z" fill="#343A40"/>
</svg>
