<?xml version="1.0" encoding="UTF-8"?>
<svg width="180px" height="180px" viewBox="0 0 180 180" version="1.1" xmlns="http://www.w3.org/2000/svg" xmlns:xlink="http://www.w3.org/1999/xlink">
    <title>Artboard</title>
    <defs>
        <path d="M160.516471,5.68434189e-14 L35.2489832,5.68434189e-14 C29.146667,5.68434189e-14 23.3306765,4.9337454 22.2480075,11.0184007 L0.174086661,135.923348 C-0.908582338,142.008003 3.17155868,146.941748 9.27387486,146.941748 L134.541362,146.941748 C140.643679,146.941748 146.468617,142.008003 147.542338,135.923348 L169.625206,11.0184007 C170.68998,4.9337454 166.618787,5.68434189e-14 160.516471,5.68434189e-14 Z" id="path-1"></path>
    </defs>
    <g id="Artboard" stroke="none" stroke-width="1" fill="none" fill-rule="evenodd">
        <g id="avatar-2" transform="translate(5.000000, 17.000000)">
            <g id="avatar">
                <g id="Прямоугольник">
                    <g id="_11" transform="translate(0.098049, 0.000000)">
                        <mask id="mask-2" fill="white">
                            <use xlink:href="#path-1"></use>
                        </mask>
                        <use id="Mask" fill="#4CCEAC" fill-rule="nonzero" xlink:href="#path-1"></use>
                        <g mask="url(#mask-2)">
                            <g transform="translate(31.901951, 12.000000)">
                                <g id="_1" transform="translate(0.000000, 14.646507)">
                                    <path d="M51.3538569,0.116132065 L32.1638376,108.947848 L4.99735167,108.947848 L15.289855,50.6033215 C16.7742647,42.1768713 17.4657969,37.1114664 17.3644517,35.4071065 C17.2744297,33.7157558 16.2357361,32.2205851 14.6817836,31.5454802 C13.0185294,30.6694631 9.04818054,30.2314545 2.77073712,30.2314545 L0.0880689961,30.2314545 L2.33256799,17.5470845 C15.9605221,14.7223763 26.9594614,8.91205883 35.3293859,0.116132065 L51.3538569,0.116132065 Z" id="_1-2" fill="#FFFFFF" fill-rule="nonzero"></path>
                                </g>
                                <g id="_1-3" transform="translate(53.308410, 0.000000)">
                                    <path d="M35.307707,0.0491270824 C40.5657365,8.83909452 49.5079636,14.6464324 62.1343883,17.4711406 L59.8988315,30.1644495 L57.2161634,30.1644495 C50.93872,30.1644495 46.8163533,30.5994785 44.8490633,31.4695362 C43.0514062,32.175043 41.6094984,33.5681618 40.8429456,35.3401016 C40.1335289,37.0385021 39.0366157,42.1039071 37.552206,50.5363165 L27.2597026,108.880843 L0.111101201,108.880843 L19.3279472,0.0491270824 L35.307707,0.0491270824 Z" id="_1-4" fill="#FFFFFF" fill-rule="nonzero"></path>
                                </g>
                            </g>
                        </g>
                    </g>
                </g>
            </g>
        </g>
    </g>
</svg>