<svg width="300" height="47" viewBox="0 0 300 47" fill="none" xmlns="http://www.w3.org/2000/svg">
<path d="M226.548 0H186.612C184.665 0 182.812 1.55538 182.466 3.47404L175.43 42.8542C175.085 44.771 176.384 46.3264 178.331 46.3264H218.267C220.212 46.3264 222.069 44.771 222.411 42.8542L229.452 3.47404C229.791 1.55538 228.493 0 226.548 0Z" fill="#4CCEAC"/>
<path d="M202.104 8.41016L195.982 42.6568H187.316L190.6 24.2973C191.072 21.645 191.293 20.0526 191.261 19.5147C191.247 19.2538 191.159 19.0033 191.009 18.7882C190.857 18.5731 190.649 18.4038 190.406 18.2997C189.875 18.0246 188.609 17.8871 186.605 17.8871H185.75L186.466 13.8963C190.813 13.0058 194.322 11.1788 196.992 8.41016H202.104Z" fill="white"/>
<path d="M213.99 3.78125C215.667 6.54638 218.521 8.37333 222.548 9.26212L221.836 13.2564H220.979C218.977 13.2564 217.662 13.3939 217.034 13.6673C216.75 13.7784 216.491 13.9424 216.272 14.1505C216.054 14.3603 215.877 14.609 215.757 14.8858C215.53 15.4202 215.181 17.0144 214.706 19.6684L211.423 38.0261H202.762L208.894 3.78125H213.99Z" fill="white"/>
<path d="M9.58271 14.0831H0V8.51758H26.0994V14.0831H16.5149V38.0487H9.58271V14.0831Z" fill="#696FFB"/>
<path d="M31.7935 23.2815C31.7935 14.5065 38.7257 8.00806 48.1779 8.00806C57.6319 8.00806 64.5658 14.4782 64.5658 23.2815C64.5658 32.0865 57.5913 38.5549 48.1779 38.5549C38.7645 38.5549 31.7935 32.0671 31.7935 23.2815ZM57.549 23.2815C57.549 17.6701 53.5265 13.831 48.1779 13.831C42.8293 13.831 38.8068 17.6701 38.8068 23.2815C38.8068 28.8929 42.8293 32.7337 48.1779 32.7337C53.5265 32.7337 57.549 28.8929 57.549 23.2815Z" fill="#696FFB"/>
<path d="M100.038 19.2306C100.038 25.8137 95.0318 29.9067 87.031 29.9067H80.9981V38.0627H74.0659V8.5281H87.031C95.0318 8.51752 100.038 12.607 100.038 19.2306ZM93.0215 19.2306C93.0215 15.9823 90.8824 14.083 86.6465 14.083H80.9981V24.3359H86.6465C90.8824 24.3359 93.0215 22.4384 93.0215 19.2306Z" fill="#696FFB"/>
<path d="M107.312 35.1373L109.665 29.9897C112.19 31.8044 115.955 33.0705 119.549 33.0705C123.658 33.0705 125.326 31.7197 125.326 29.9069C125.326 24.3784 107.912 28.1769 107.912 17.2063C107.912 12.1857 112.019 8.00806 120.535 8.00806C124.3 8.00806 128.151 8.89508 130.932 10.6233L128.793 15.8132C126.011 14.2525 123.145 13.5013 120.491 13.5013C116.384 13.5013 114.786 15.0214 114.786 16.8766C114.786 22.3204 132.202 18.5642 132.202 29.4078C132.202 34.3438 128.051 38.5638 119.493 38.5638C114.758 38.5549 109.965 37.1636 107.312 35.1373Z" fill="#343A40"/>
<path d="M164.435 32.5644V38.0488H141.244V8.51416H163.88V14.0003H148.134V20.4123H162.039V25.7292H148.134V32.5644H164.435Z" fill="#343A40"/>
<path d="M262.976 32.5644V38.0488H239.785V8.51416H262.419V14.0003H246.673V20.4123H260.58V25.7292H246.673V32.5644H262.976Z" fill="#343A40"/>
<path d="M291.858 38.0485L286.081 29.8166H279.706V38.0432H272.774V8.50854H285.739C293.74 8.50854 298.746 12.598 298.746 19.2234C298.746 23.6533 296.464 26.9016 292.585 28.5469L299.304 38.0397L291.858 38.0485ZM285.342 14.0829H279.694V24.378H285.342C289.578 24.378 291.719 22.4382 291.719 19.2305C291.73 15.9821 289.59 14.0829 285.342 14.0829Z" fill="#343A40"/>
</svg>
