<svg width="168" height="27" viewBox="0 0 168 27" fill="none" xmlns="http://www.w3.org/2000/svg">
<path d="M127.162 0H104.746C103.654 0 102.613 0.873041 102.419 1.94999L98.4697 24.0542C98.2757 25.1301 99.0052 26.0032 100.098 26.0032H122.514C123.606 26.0032 124.648 25.1301 124.84 24.0542L128.793 1.94999C128.983 0.873041 128.254 0 127.162 0Z" fill="#4CCEAC"/>
<path d="M113.442 4.7207L110.005 23.9434H105.141L106.984 13.6382C107.25 12.1495 107.373 11.2556 107.355 10.9537C107.348 10.8072 107.298 10.6667 107.214 10.5459C107.129 10.4252 107.012 10.3301 106.875 10.2717C106.577 10.1173 105.867 10.0401 104.742 10.0401H104.262L104.664 7.8001C107.104 7.30023 109.074 6.27476 110.572 4.7207H113.442Z" fill="white"/>
<path d="M120.113 2.12207C121.055 3.67414 122.656 4.69962 124.917 5.1985L124.517 7.44049H124.036C122.913 7.44049 122.174 7.5177 121.822 7.67113C121.662 7.73349 121.517 7.82554 121.394 7.94234C121.271 8.06013 121.172 8.1997 121.105 8.35511C120.977 8.65503 120.782 9.54985 120.515 11.0396L118.672 21.3438H113.811L117.253 2.12207H120.113Z" fill="white"/>
<path d="M5.3788 7.9047H0V4.78076H14.6497V7.9047H9.26987V21.3567H5.3788V7.9047Z" fill="#696FFB"/>
<path d="M17.8457 13.0677C17.8457 8.1422 21.7368 4.49463 27.0423 4.49463C32.3489 4.49463 36.2409 8.12636 36.2409 13.0677C36.2409 18.0099 32.3261 21.6407 27.0423 21.6407C21.7586 21.6407 17.8457 17.999 17.8457 13.0677ZM32.3023 13.0677C32.3023 9.91797 30.0445 7.76309 27.0423 7.76309C24.0401 7.76309 21.7823 9.91797 21.7823 13.0677C21.7823 16.2173 24.0401 18.3732 27.0423 18.3732C30.0445 18.3732 32.3023 16.2173 32.3023 13.0677Z" fill="#696FFB"/>
<path d="M56.1516 10.7945C56.1516 14.4896 53.3415 16.787 48.8506 16.787H45.4643V21.365H41.5732V4.78712H48.8506C53.3415 4.78118 56.1516 7.07663 56.1516 10.7945ZM52.2131 10.7945C52.2131 8.97118 51.0124 7.90512 48.6348 7.90512H45.4643V13.6601H48.6348C51.0124 13.6601 52.2131 12.595 52.2131 10.7945Z" fill="#696FFB"/>
<path d="M60.2349 19.7224L61.5553 16.833C62.9728 17.8516 65.0861 18.5623 67.1034 18.5623C69.4097 18.5623 70.3461 17.804 70.3461 16.7865C70.3461 13.6833 60.5714 15.8155 60.5714 9.65765C60.5714 6.83957 62.8767 4.49463 67.6567 4.49463C69.77 4.49463 71.9318 4.99252 73.4928 5.96257L72.2921 8.87567C70.7302 7.99966 69.1217 7.57799 67.632 7.57799C65.3266 7.57799 64.4298 8.43123 64.4298 9.47255C64.4298 12.5282 74.2055 10.4198 74.2055 16.5064C74.2055 19.2769 71.8754 21.6456 67.0717 21.6456C64.414 21.6407 61.7236 20.8597 60.2349 19.7224Z" fill="#343A40"/>
<path d="M92.2977 18.2783V21.3567H79.2803V4.77881H91.9859V7.85821H83.1476V11.4573H90.9525V14.4416H83.1476V18.2783H92.2977Z" fill="#343A40"/>
<path d="M147.609 18.2783V21.3567H134.592V4.77881H147.296V7.85821H138.458V11.4573H146.264V14.4416H138.458V18.2783H147.609Z" fill="#343A40"/>
<path d="M163.821 21.3567L160.578 16.7361H157V21.3538H153.109V4.77588H160.386C164.877 4.77588 167.687 7.07132 167.687 10.7902C167.687 13.2766 166.406 15.0999 164.229 16.0235L168 21.3518L163.821 21.3567ZM160.163 7.90477H156.993V13.6835H160.163C162.541 13.6835 163.743 12.5946 163.743 10.7941C163.749 8.97083 162.548 7.90477 160.163 7.90477Z" fill="#343A40"/>
</svg>
