<svg width="28" height="14" viewBox="0 0 28 14" fill="none" xmlns="http://www.w3.org/2000/svg">
<path fill-rule="evenodd" clip-rule="evenodd" d="M14.5349 0.947266H6.94029C3.48508 0.947266 0.684082 3.74826 0.684082 7.20347C0.684082 10.4191 3.11014 13.0681 6.23175 13.42L8.20244 10.4597H6.94029C5.14194 10.4597 3.68408 9.00182 3.68408 7.20347C3.68408 5.40512 5.14193 3.94727 6.94029 3.94727H12.5378L14.5349 0.947266ZM14.0628 10.4597H20.9542C22.7525 10.4597 24.2104 9.00183 24.2104 7.20347C24.2104 5.40512 22.7525 3.94727 20.9542 3.94727H18.3981L20.3952 0.947266H20.9542C24.4094 0.947266 27.2104 3.74826 27.2104 7.20347C27.2104 10.6587 24.4094 13.4597 20.9542 13.4597H12.0657L14.0628 10.4597Z" fill="url(#paint0_linear)"/>
<defs>
<linearGradient id="paint0_linear" x1="2.93632" y1="11.7079" x2="25.4587" y2="3.1995" gradientUnits="userSpaceOnUse">
<stop offset="0.334088" stop-color="#4CCEAC"/>
<stop offset="0.818058" stop-color="#696FFB"/>
</linearGradient>
</defs>
</svg>
