<svg width="153" height="24" viewBox="0 0 153 24" fill="none" xmlns="http://www.w3.org/2000/svg">
<path fill-rule="evenodd" clip-rule="evenodd" d="M147.099 17.7558V12.6983H144.805V12.8861C144.765 14.9386 144.429 16.4143 144.014 17.7558H147.099ZM151.177 17.7558H152.693L152.599 23.3766H148.843V21.029H142.699L142.632 23.3766H138.849V17.7558H140.163C140.821 15.8643 141.143 14.0265 141.143 10.0286V9.46535H151.177V17.7558ZM75.0206 8.75431C72.2706 8.75431 70.9692 7.58717 70.6471 5.56147L73.746 5.1189C73.8938 5.88355 74.2692 6.36643 75.0206 6.36643C75.772 6.36643 76.1474 5.88355 76.2949 5.1189L79.3939 5.56147C79.072 7.58717 77.7571 8.75431 75.0206 8.75431ZM61.0824 17.8362C62.5581 17.8362 63.4971 16.6812 63.4971 15.2605C63.4971 13.8666 62.4642 12.6848 61.0421 12.6848C59.5666 12.6848 58.6276 13.8401 58.6276 15.2605C58.6276 16.6547 59.647 17.8362 61.0824 17.8362ZM61.0824 9.21044C64.7714 9.21044 67.4411 11.9337 67.4411 15.2605C67.4411 18.5473 64.7579 21.3106 61.0421 21.3106C57.3396 21.3106 54.6699 18.5876 54.6699 15.2605C54.6699 11.974 57.3666 9.21044 61.0824 9.21044ZM131.028 17.89C132.329 17.89 133.375 16.8032 133.375 15.2338C133.375 13.7045 132.329 12.6045 131.028 12.6045C129.7 12.6045 128.653 13.6775 128.653 15.2739C128.653 16.8032 129.7 17.89 131.028 17.89ZM133.295 9.46528H137.346V21.029H133.295V19.4864C132.503 20.4522 131.524 21.2839 129.794 21.2839C127.03 21.2839 124.656 19.0033 124.656 15.2606C124.656 11.5045 127.03 9.21032 129.767 9.21032C131.524 9.21032 132.544 10.002 133.295 10.8739V9.46528ZM73.0754 15.2874L76.9389 9.46528H80.6818V21.029H76.7509V17.2593C76.7509 16.535 76.7509 15.8642 76.7644 15.2068L72.901 21.029H69.1582V9.46528H73.0889V13.1813C73.0889 13.7581 73.0889 14.5899 73.0754 15.2874ZM113.025 11.6922L113.052 9.46533H123.006V21.029H118.941V12.6983H116.607V13.0607C116.486 20.0497 114.93 21.1765 112.475 21.1765C112.086 21.1765 111.321 21.1094 110.811 21.029H105.996L102.803 16.0922V21.029H98.7516V9.46533H102.803V13.919L105.902 9.46533H110.583L106.452 14.724L110.691 20.8948L110.879 17.3398C111.321 17.3936 111.429 17.3936 111.536 17.3936C112.26 17.3936 113.012 16.8704 113.025 11.6922ZM91.2527 17.407C92.6748 17.407 93.6541 16.7899 94.4721 15.6095L97.598 17.8899C96.1088 19.9021 94.2306 21.3107 90.9574 21.3107C86.6109 21.3107 83.2843 18.0777 83.2843 13.5166C83.2843 9.26409 86.5844 5.76292 91.1588 5.76292C93.9892 5.76292 96.055 6.99694 97.5174 9.08976L94.4453 11.3299C93.627 10.1898 92.6477 9.65306 91.3464 9.65306C89.1601 9.65306 87.6441 11.3702 87.6441 13.5166C87.6441 15.8777 89.227 17.407 91.2527 17.407ZM48.3113 6.01774H50.981L53.8517 21.029H49.787L48.4724 13.7043L44.8102 21.5254H44.3406L40.6648 13.7717L39.3504 21.029H35.3125L38.1833 6.01774H40.8391C40.8391 6.01774 43.1466 10.9811 43.6029 11.9336C44.059 12.8861 44.582 14.1068 44.582 14.1068C44.582 14.1068 45.2527 12.5374 45.5881 11.8667C45.9237 11.196 48.3113 6.01774 48.3113 6.01774Z" fill="#2855AF"/>
<path fill-rule="evenodd" clip-rule="evenodd" d="M4.08252 22.2517C7.7424 22.2517 10.5095 17.4867 12.9901 12.2845C14.184 9.76235 15.2973 7.11975 16.4106 4.8794C17.6332 2.39435 18.8873 0.640381 20.4217 0.640381C21.7224 0.640381 22.9464 1.69076 24.1646 3.33658C26.6902 6.75362 28.8732 12.5404 28.8732 16.3356C28.8732 19.515 27.2367 22.2517 23.8828 22.2517H4.08252Z" fill="#64CDFF"/>
<path fill-rule="evenodd" clip-rule="evenodd" d="M12.9899 12.2844C10.476 7.21617 9.33775 3.49756 7.11418 3.49756C5.73241 3.49756 4.1763 4.94646 2.76772 7.32081C1.2587 9.84036 0.0712891 13.3956 0.0712891 17.2212C0.0712891 20.242 1.54978 22.2517 4.08238 22.2517C7.74133 22.2517 10.5093 17.4866 12.9899 12.2844Z" fill="#2855AF"/>
</svg>
